<svg width="317" height="24" viewBox="0 0 317 24" fill="none" xmlns="http://www.w3.org/2000/svg">
<g opacity="0.5">
<path d="M0.132023 8.492V0.791996H3.74002C4.66402 0.791996 5.36802 0.97533 5.85202 1.342C6.33602 1.70133 6.57802 2.18533 6.57802 2.794C6.57802 3.20466 6.48269 3.55666 6.29202 3.85C6.10136 4.136 5.84469 4.35966 5.52202 4.521C5.20669 4.675 4.86202 4.752 4.48802 4.752L4.68602 4.356C5.11869 4.356 5.50736 4.43666 5.85202 4.598C6.19669 4.752 6.46802 4.97933 6.66602 5.28C6.87136 5.58066 6.97402 5.95466 6.97402 6.402C6.97402 7.062 6.72102 7.57533 6.21502 7.942C5.70902 8.30866 4.95736 8.492 3.96002 8.492H0.132023ZM1.56202 7.37H3.87202C4.40736 7.37 4.81802 7.282 5.10402 7.106C5.39002 6.93 5.53302 6.64766 5.53302 6.259C5.53302 5.87766 5.39002 5.599 5.10402 5.423C4.81802 5.23966 4.40736 5.148 3.87202 5.148H1.45202V4.037H3.58602C4.08469 4.037 4.46602 3.949 4.73002 3.773C5.00136 3.597 5.13702 3.333 5.13702 2.981C5.13702 2.62166 5.00136 2.354 4.73002 2.178C4.46602 2.002 4.08469 1.914 3.58602 1.914H1.56202V7.37ZM8.85219 10.703C8.56619 10.703 8.28019 10.6553 7.99419 10.56C7.70819 10.4647 7.46985 10.3327 7.27919 10.164L7.82919 9.152C7.96852 9.27666 8.12619 9.37566 8.30219 9.449C8.47819 9.52233 8.65785 9.559 8.84119 9.559C9.09052 9.559 9.29219 9.49666 9.44619 9.372C9.60019 9.24733 9.74319 9.03833 9.87519 8.745L10.2162 7.975L10.3262 7.81L12.5482 2.618H13.8682L11.1182 8.965C10.9349 9.405 10.7295 9.75333 10.5022 10.01C10.2822 10.2667 10.0329 10.4463 9.75419 10.549C9.48285 10.6517 9.18219 10.703 8.85219 10.703ZM10.0622 8.701L7.41119 2.618H8.84119L10.9972 7.689L10.0622 8.701ZM21.4636 8.602C20.8769 8.602 20.3306 8.50666 19.8246 8.316C19.3259 8.118 18.8896 7.843 18.5156 7.491C18.1489 7.13166 17.8629 6.71 17.6576 6.226C17.4523 5.742 17.3496 5.214 17.3496 4.642C17.3496 4.07 17.4523 3.542 17.6576 3.058C17.8629 2.574 18.1526 2.156 18.5266 1.804C18.9006 1.44466 19.3369 1.16966 19.8356 0.978996C20.3343 0.780996 20.8806 0.681996 21.4746 0.681996C22.1053 0.681996 22.6809 0.791996 23.2016 1.012C23.7223 1.22466 24.1623 1.54366 24.5216 1.969L23.5976 2.838C23.3189 2.53733 23.0073 2.31366 22.6626 2.167C22.3179 2.013 21.9439 1.936 21.5406 1.936C21.5406 1.936 21.1373 2.002 20.4296 2.134C20.0996 2.266 19.8099 2.453 19.5606 2.695C19.3186 2.937 19.1279 3.223 18.9886 3.553C18.8566 3.883 18.7906 4.246 18.7906 4.642C18.7906 5.038 18.8566 5.401 18.9886 5.731C19.1279 6.061 19.3186 6.347 19.5606 6.589C19.8099 6.831 20.0996 7.018 20.4296 7.15C20.7669 7.282 21.1373 7.348 21.5406 7.348C21.9439 7.348 22.3179 7.27466 22.6626 7.128C23.0073 6.974 23.3189 6.743 23.5976 6.435L24.5216 7.315C24.1623 7.733 23.7223 8.052 23.2016 8.272C22.6809 8.492 22.1016 8.602 21.4636 8.602ZM28.0775 8.569C27.4762 8.569 26.9409 8.44066 26.4715 8.184C26.0022 7.92 25.6319 7.56066 25.3605 7.106C25.0892 6.65133 24.9535 6.13433 24.9535 5.555C24.9535 4.96833 25.0892 4.45133 25.3605 4.004C25.6319 3.54933 26.0022 3.19366 26.4715 2.937C26.9409 2.68033 27.4762 2.552 28.0775 2.552C28.6862 2.552 29.2252 2.68033 29.6945 2.937C30.1712 3.19366 30.5415 3.54566 30.8055 3.993C31.0769 4.44033 31.2125 4.961 31.2125 5.555C31.2125 6.13433 31.0769 6.65133 30.8055 7.106C30.5415 7.56066 30.1712 7.92 29.6945 8.184C29.2252 8.44066 28.6862 8.569 28.0775 8.569ZM28.0775 7.392C28.4149 7.392 28.7155 7.31866 28.9795 7.172C29.2435 7.02533 29.4489 6.81266 29.5955 6.534C29.7495 6.25533 29.8265 5.929 29.8265 5.555C29.8265 5.17366 29.7495 4.84733 29.5955 4.576C29.4489 4.29733 29.2435 4.08466 28.9795 3.938C28.7155 3.79133 28.4185 3.718 28.0885 3.718C27.7512 3.718 27.4505 3.79133 27.1865 3.938C26.9299 4.08466 26.7245 4.29733 26.5705 4.576C26.4165 4.84733 26.3395 5.17366 26.3395 5.555C26.3395 5.929 26.4165 6.25533 26.5705 6.534C26.7245 6.81266 26.9299 7.02533 27.1865 7.172C27.4505 7.31866 27.7475 7.392 28.0775 7.392ZM32.5274 8.492V2.618H33.8364V4.202L33.6054 3.718C33.8107 3.344 34.1077 3.058 34.4964 2.86C34.8924 2.65466 35.347 2.552 35.8604 2.552C36.3297 2.552 36.7477 2.64366 37.1144 2.827C37.4884 3.01033 37.7817 3.29266 37.9944 3.674C38.207 4.048 38.3134 4.532 38.3134 5.126V8.492H36.9384V5.302C36.9384 4.78133 36.8137 4.39266 36.5644 4.136C36.3224 3.87933 35.9814 3.751 35.5414 3.751C35.2187 3.751 34.9327 3.817 34.6834 3.949C34.434 4.081 34.2397 4.279 34.1004 4.543C33.9684 4.79966 33.9024 5.126 33.9024 5.522V8.492H32.5274ZM42.2686 8.569C41.6233 8.569 41.1246 8.404 40.7726 8.074C40.4206 7.73666 40.2446 7.24166 40.2446 6.589V1.32H41.6196V6.556C41.6196 6.83466 41.6893 7.051 41.8286 7.205C41.9753 7.359 42.177 7.436 42.4336 7.436C42.7416 7.436 42.9983 7.35533 43.2036 7.194L43.5886 8.173C43.4273 8.305 43.2293 8.404 42.9946 8.47C42.76 8.536 42.518 8.569 42.2686 8.569ZM39.2766 3.718V2.618H43.1926V3.718H39.2766ZM44.7197 8.492V2.618H46.0947V8.492H44.7197ZM45.4127 1.65C45.1561 1.65 44.9434 1.56933 44.7747 1.408C44.6134 1.24666 44.5327 1.05233 44.5327 0.824996C44.5327 0.59033 44.6134 0.395996 44.7747 0.241996C44.9434 0.0806631 45.1561 -3.39746e-06 45.4127 -3.39746e-06C45.6694 -3.39746e-06 45.8784 0.0769965 46.0397 0.230996C46.2084 0.377663 46.2927 0.564663 46.2927 0.791996C46.2927 1.034 46.2121 1.23933 46.0507 1.408C45.8894 1.56933 45.6767 1.65 45.4127 1.65ZM47.8994 8.492V2.618H49.2084V4.202L48.9774 3.718C49.1828 3.344 49.4798 3.058 49.8684 2.86C50.2644 2.65466 50.7191 2.552 51.2324 2.552C51.7018 2.552 52.1198 2.64366 52.4864 2.827C52.8604 3.01033 53.1538 3.29266 53.3664 3.674C53.5791 4.048 53.6854 4.532 53.6854 5.126V8.492H52.3104V5.302C52.3104 4.78133 52.1858 4.39266 51.9364 4.136C51.6944 3.87933 51.3534 3.751 50.9134 3.751C50.5908 3.751 50.3048 3.817 50.0554 3.949C49.8061 4.081 49.6118 4.279 49.4724 4.543C49.3404 4.79966 49.2744 5.126 49.2744 5.522V8.492H47.8994ZM57.9157 8.569C57.417 8.569 56.977 8.47733 56.5957 8.294C56.2144 8.10333 55.9174 7.81733 55.7047 7.436C55.492 7.04733 55.3857 6.55966 55.3857 5.973V2.618H56.7607V5.786C56.7607 6.314 56.878 6.71 57.1127 6.974C57.3547 7.23066 57.6957 7.359 58.1357 7.359C58.4584 7.359 58.737 7.293 58.9717 7.161C59.2137 7.029 59.4007 6.831 59.5327 6.567C59.672 6.303 59.7417 5.97666 59.7417 5.588V2.618H61.1167V8.492H59.8077V6.908L60.0387 7.392C59.8407 7.77333 59.551 8.06666 59.1697 8.272C58.7884 8.47 58.3704 8.569 57.9157 8.569ZM62.917 8.492V2.618H64.292V8.492H62.917ZM63.61 1.65C63.3533 1.65 63.1407 1.56933 62.972 1.408C62.8107 1.24666 62.73 1.05233 62.73 0.824996C62.73 0.59033 62.8107 0.395996 62.972 0.241996C63.1407 0.0806631 63.3533 -3.39746e-06 63.61 -3.39746e-06C63.8667 -3.39746e-06 64.0757 0.0769965 64.237 0.230996C64.4057 0.377663 64.49 0.564663 64.49 0.791996C64.49 1.034 64.4093 1.23933 64.248 1.408C64.0867 1.56933 63.874 1.65 63.61 1.65ZM66.0967 8.492V2.618H67.4057V4.202L67.1747 3.718C67.38 3.344 67.677 3.058 68.0657 2.86C68.4617 2.65466 68.9164 2.552 69.4297 2.552C69.899 2.552 70.317 2.64366 70.6837 2.827C71.0577 3.01033 71.351 3.29266 71.5637 3.674C71.7764 4.048 71.8827 4.532 71.8827 5.126V8.492H70.5077V5.302C70.5077 4.78133 70.383 4.39266 70.1337 4.136C69.8917 3.87933 69.5507 3.751 69.1107 3.751C68.788 3.751 68.502 3.817 68.2527 3.949C68.0034 4.081 67.809 4.279 67.6697 4.543C67.5377 4.79966 67.4717 5.126 67.4717 5.522V8.492H66.0967ZM76.2997 10.703C75.7571 10.703 75.2254 10.6297 74.7047 10.483C74.1914 10.3437 73.7697 10.1383 73.4397 9.867L74.0557 8.833C74.3124 9.04566 74.6351 9.21433 75.0237 9.339C75.4197 9.471 75.8194 9.537 76.2227 9.537C76.8681 9.537 77.3411 9.38666 77.6417 9.086C77.9424 8.79266 78.0927 8.349 78.0927 7.755V6.71L78.2027 5.379L78.1587 4.048V2.618H79.4677V7.601C79.4677 8.66433 79.1964 9.44533 78.6537 9.944C78.1111 10.45 77.3264 10.703 76.2997 10.703ZM76.1237 8.228C75.5664 8.228 75.0604 8.11066 74.6057 7.876C74.1584 7.634 73.8027 7.30033 73.5387 6.875C73.2821 6.44966 73.1537 5.951 73.1537 5.379C73.1537 4.81433 73.2821 4.31933 73.5387 3.894C73.8027 3.46866 74.1584 3.13866 74.6057 2.904C75.0604 2.66933 75.5664 2.552 76.1237 2.552C76.6224 2.552 77.0697 2.651 77.4657 2.849C77.8617 3.047 78.1771 3.355 78.4117 3.773C78.6537 4.191 78.7747 4.72633 78.7747 5.379C78.7747 6.03166 78.6537 6.57066 78.4117 6.996C78.1771 7.414 77.8617 7.72566 77.4657 7.931C77.0697 8.129 76.6224 8.228 76.1237 8.228ZM76.3327 7.062C76.6774 7.062 76.9854 6.99233 77.2567 6.853C77.5281 6.70633 77.7371 6.50833 77.8837 6.259C78.0377 6.00233 78.1147 5.709 78.1147 5.379C78.1147 5.049 78.0377 4.75933 77.8837 4.51C77.7371 4.25333 77.5281 4.059 77.2567 3.927C76.9854 3.78766 76.6774 3.718 76.3327 3.718C75.9881 3.718 75.6764 3.78766 75.3977 3.927C75.1264 4.059 74.9137 4.25333 74.7597 4.51C74.6131 4.75933 74.5397 5.049 74.5397 5.379C74.5397 5.709 74.6131 6.00233 74.7597 6.259C74.9137 6.50833 75.1264 6.70633 75.3977 6.853C75.6764 6.99233 75.9881 7.062 76.3327 7.062ZM80.9124 10.153L81.5504 7.722L81.7374 8.536C81.4807 8.536 81.2644 8.459 81.0884 8.305C80.9197 8.14366 80.8354 7.92733 80.8354 7.656C80.8354 7.37733 80.9197 7.15733 81.0884 6.996C81.2644 6.82733 81.4771 6.743 81.7264 6.743C81.9831 6.743 82.1957 6.82733 82.3644 6.996C82.5331 7.16466 82.6174 7.38466 82.6174 7.656C82.6174 7.72933 82.6101 7.81 82.5954 7.898C82.5807 7.97866 82.5551 8.074 82.5184 8.184C82.4891 8.294 82.4377 8.43333 82.3644 8.602L81.8034 10.153H80.9124ZM87.133 8.492V0.791996H88.563V8.492H87.133ZM97.1727 8.492V7.304L97.0957 7.051V4.972C97.0957 4.56866 96.9747 4.257 96.7327 4.037C96.4907 3.80966 96.1241 3.696 95.6327 3.696C95.3027 3.696 94.9764 3.74733 94.6537 3.85C94.3384 3.95266 94.0707 4.09566 93.8507 4.279L93.3117 3.278C93.6271 3.036 94.0011 2.85633 94.4337 2.739C94.8737 2.61433 95.3284 2.552 95.7977 2.552C96.6484 2.552 97.3047 2.75733 97.7667 3.168C98.2361 3.57133 98.4707 4.19833 98.4707 5.049V8.492H97.1727ZM95.3247 8.569C94.8847 8.569 94.4997 8.49566 94.1697 8.349C93.8397 8.195 93.5831 7.986 93.3997 7.722C93.2237 7.45066 93.1357 7.14633 93.1357 6.809C93.1357 6.479 93.2127 6.182 93.3667 5.918C93.5281 5.654 93.7884 5.445 94.1477 5.291C94.5071 5.137 94.9837 5.06 95.5777 5.06H97.2827V5.973H95.6767C95.2074 5.973 94.8921 6.05 94.7307 6.204C94.5694 6.35066 94.4887 6.534 94.4887 6.754C94.4887 7.00333 94.5877 7.20133 94.7857 7.348C94.9837 7.49466 95.2587 7.568 95.6107 7.568C95.9481 7.568 96.2487 7.491 96.5127 7.337C96.7841 7.183 96.9784 6.95566 97.0957 6.655L97.3267 7.48C97.1947 7.82466 96.9564 8.09233 96.6117 8.283C96.2744 8.47366 95.8454 8.569 95.3247 8.569ZM102.908 10.703C102.365 10.703 101.834 10.6297 101.313 10.483C100.8 10.3437 100.378 10.1383 100.048 9.867L100.664 8.833C100.921 9.04566 101.243 9.21433 101.632 9.339C102.028 9.471 102.428 9.537 102.831 9.537C103.476 9.537 103.949 9.38666 104.25 9.086C104.551 8.79266 104.701 8.349 104.701 7.755V6.71L104.811 5.379L104.767 4.048V2.618H106.076V7.601C106.076 8.66433 105.805 9.44533 105.262 9.944C104.719 10.45 103.935 10.703 102.908 10.703ZM102.732 8.228C102.175 8.228 101.669 8.11066 101.214 7.876C100.767 7.634 100.411 7.30033 100.147 6.875C99.8904 6.44966 99.7621 5.951 99.7621 5.379C99.7621 4.81433 99.8904 4.31933 100.147 3.894C100.411 3.46866 100.767 3.13866 101.214 2.904C101.669 2.66933 102.175 2.552 102.732 2.552C103.231 2.552 103.678 2.651 104.074 2.849C104.47 3.047 104.785 3.355 105.02 3.773C105.262 4.191 105.383 4.72633 105.383 5.379C105.383 6.03166 105.262 6.57066 105.02 6.996C104.785 7.414 104.47 7.72566 104.074 7.931C103.678 8.129 103.231 8.228 102.732 8.228ZM102.941 7.062C103.286 7.062 103.594 6.99233 103.865 6.853C104.136 6.70633 104.345 6.50833 104.492 6.259C104.646 6.00233 104.723 5.709 104.723 5.379C104.723 5.049 104.646 4.75933 104.492 4.51C104.345 4.25333 104.136 4.059 103.865 3.927C103.594 3.78766 103.286 3.718 102.941 3.718C102.596 3.718 102.285 3.78766 102.006 3.927C101.735 4.059 101.522 4.25333 101.368 4.51C101.221 4.75933 101.148 5.049 101.148 5.379C101.148 5.709 101.221 6.00233 101.368 6.259C101.522 6.50833 101.735 6.70633 102.006 6.853C102.285 6.99233 102.596 7.062 102.941 7.062ZM107.884 8.492V2.618H109.193V4.235L109.039 3.762C109.215 3.366 109.49 3.06533 109.864 2.86C110.245 2.65466 110.718 2.552 111.283 2.552V3.861C111.224 3.84633 111.169 3.839 111.118 3.839C111.066 3.83166 111.015 3.828 110.964 3.828C110.443 3.828 110.029 3.982 109.721 4.29C109.413 4.59066 109.259 5.04166 109.259 5.643V8.492H107.884ZM115.157 8.569C114.504 8.569 113.441 8.44066 113.441 8.184C112.957 7.92 112.579 7.56066 112.308 7.106C112.044 6.65133 111.912 6.13433 111.912 5.555C111.912 4.96833 112.04 4.45133 112.297 4.004C112.561 3.54933 112.92 3.19366 113.375 2.937C113.837 2.68033 114.361 2.552 114.948 2.552C115.52 2.552 116.029 2.67666 116.477 2.926C116.924 3.17533 117.276 3.52733 117.533 3.982C117.789 4.43666 117.918 4.972 117.918 5.588C117.918 5.64666 117.914 5.71266 117.907 5.786C117.907 5.85933 117.903 5.929 117.896 5.995H113.001V5.082H117.17L116.631 5.368C116.638 5.03066 116.568 4.73366 116.422 4.477C116.275 4.22033 116.073 4.01866 115.817 3.872C115.567 3.72533 115.278 3.652 114.948 3.652C114.61 3.652 114.313 3.72533 114.057 3.872C113.807 4.01866 113.609 4.224 113.463 4.488C113.323 4.74466 113.254 5.049 113.254 5.401V5.621C113.254 5.973 113.334 6.28466 113.496 6.556C113.657 6.82733 113.884 7.03633 114.178 7.183C114.471 7.32966 114.808 7.403 115.19 7.403C115.52 7.403 115.817 7.35166 116.081 7.249C116.345 7.14633 116.579 6.985 116.785 6.765L117.522 7.612C117.258 7.92 116.924 8.15833 116.521 8.327C116.125 8.48833 115.67 8.569 115.157 8.569ZM121.999 8.569C121.347 8.569 120.775 8.44066 120.283 8.184C119.799 7.92 119.422 7.56066 119.15 7.106C118.886 6.65133 118.754 6.13433 118.754 5.555C118.754 4.96833 118.883 4.45133 119.139 4.004C119.403 3.54933 119.763 3.19366 120.217 2.937C120.679 2.68033 121.204 2.552 121.79 2.552C122.362 2.552 122.872 2.67666 123.319 2.926C123.767 3.17533 124.119 3.52733 124.375 3.982C124.632 4.43666 124.76 4.972 124.76 5.588C124.76 5.64666 124.757 5.71266 124.749 5.786C124.749 5.85933 124.746 5.929 124.738 5.995H119.843V5.082H124.012L123.473 5.368C123.481 5.03066 123.411 4.73366 123.264 4.477C123.118 4.22033 122.916 4.01866 122.659 3.872C122.41 3.72533 122.12 3.652 121.79 3.652C121.453 3.652 121.156 3.72533 120.899 3.872C120.65 4.01866 120.452 4.224 120.305 4.488C120.166 4.74466 120.096 5.049 120.096 5.401V5.621C120.096 5.973 120.177 6.28466 120.338 6.556C120.5 6.82733 120.727 7.03633 121.02 7.183C121.314 7.32966 121.651 7.403 122.032 7.403C122.362 7.403 122.659 7.35166 122.923 7.249C123.187 7.14633 123.422 6.985 123.627 6.765L124.364 7.612C124.1 7.92 123.767 8.15833 123.363 8.327C122.967 8.48833 122.513 8.569 121.999 8.569ZM131.332 8.569C130.687 8.569 130.188 8.404 129.836 8.074C129.484 7.73666 129.308 7.24166 129.308 6.589V1.32H130.683V6.556C130.683 6.83466 130.753 7.051 130.892 7.205C131.039 7.359 131.24 7.436 131.497 7.436C131.805 7.436 132.062 7.35533 132.267 7.194L132.652 8.173C132.491 8.305 132.293 8.404 132.058 8.47C131.823 8.536 131.581 8.569 131.332 8.569ZM128.34 3.718V2.618H132.256V3.718H128.34ZM136.23 8.569C135.629 8.569 135.093 8.44066 134.624 8.184C134.155 7.92 133.784 7.56066 133.513 7.106C133.242 6.65133 133.106 6.13433 133.106 5.555C133.106 4.96833 133.242 4.45133 133.513 4.004C133.784 3.54933 134.155 3.19366 134.624 2.937C135.093 2.68033 135.629 2.552 136.23 2.552C136.839 2.552 137.378 2.68033 137.847 2.937C138.324 3.19366 138.694 3.54566 138.958 3.993C139.229 4.44033 139.365 4.961 139.365 5.555C139.365 6.13433 139.229 6.65133 137.847 7.106C138.694 7.56066 138.324 7.92 137.847 8.184C137.378 8.44066 136.839 8.569 136.23 8.569ZM136.23 7.392C136.567 7.392 136.868 7.31866 137.132 7.172C137.396 7.02533 137.601 6.81266 137.748 6.534C137.902 6.25533 137.979 5.929 137.979 5.555C137.979 5.17366 137.902 4.84733 137.748 4.576C137.601 4.29733 137.396 4.08466 137.132 3.938C136.868 3.79133 136.571 3.718 136.241 3.718C135.904 3.718 135.603 3.79133 135.339 3.938C135.082 4.08466 134.877 4.29733 134.723 4.576C134.569 4.84733 134.492 5.17366 134.492 5.555C134.492 5.929 134.569 6.25533 134.723 6.534C134.877 6.81266 135.082 7.02533 135.339 7.172C135.603 7.31866 135.9 7.392 136.23 7.392ZM145.414 8.492V2.002H142.862V0.791996H149.396V2.002H146.844V8.492H145.414ZM152.375 8.569C151.774 8.569 151.239 8.44066 150.769 8.184C150.3 7.92 149.93 7.56066 149.658 7.106C149.387 6.65133 149.251 6.13433 149.251 5.555C149.251 4.96833 149.387 4.45133 149.658 4.004C149.93 3.54933 150.3 3.19366 150.769 2.937C151.239 2.68033 151.774 2.552 152.375 2.552C152.984 2.552 153.523 2.68033 153.992 2.937C154.469 3.19366 154.839 3.54566 155.103 3.993C155.375 4.44033 155.51 4.961 155.51 5.555C155.51 6.13433 155.375 6.65133 155.103 7.106C154.839 7.56066 154.469 7.92 153.992 8.184C153.523 8.44066 152.984 8.569 152.375 8.569ZM152.375 7.392C152.713 7.392 153.013 7.31866 153.277 7.172C153.541 7.02533 153.747 6.81266 153.893 6.534C154.047 6.25533 154.124 5.929 154.124 5.555C154.124 5.17366 154.047 4.84733 153.893 4.576C153.747 4.29733 153.541 4.08466 153.277 3.938C153.013 3.79133 152.716 3.718 152.386 3.718C152.049 3.718 151.748 3.79133 151.484 3.938C151.228 4.08466 151.022 4.29733 150.868 4.576C150.714 4.84733 150.637 5.17366 150.637 5.555C150.637 5.929 150.714 6.25533 150.868 6.534C151.022 6.81266 151.228 7.02533 151.484 7.172C151.748 7.31866 152.045 7.392 152.375 7.392ZM159.036 8.569C158.391 8.569 157.892 8.404 157.54 8.074C157.188 7.73666 157.012 7.24166 157.012 6.589V1.32H158.387V6.556C158.387 6.83466 158.457 7.051 158.596 7.205C158.743 7.359 158.945 7.436 159.201 7.436C159.509 7.436 159.766 7.35533 159.971 7.194L160.356 8.173C160.195 8.305 159.997 8.404 159.762 8.47C159.528 8.536 159.286 8.569 159.036 8.569ZM156.044 3.718V2.618H159.96V3.718H156.044ZM164.902 8.492V7.304L164.825 7.051V4.972C164.825 4.56866 164.704 4.257 164.462 4.037C164.22 3.80966 163.854 3.696 163.362 3.696C163.032 3.696 162.706 3.74733 162.383 3.85C162.068 3.95266 161.8 4.09566 161.58 4.279L161.041 3.278C161.357 3.036 161.731 2.85633 162.163 2.739C162.603 2.61433 163.058 2.552 163.527 2.552C164.378 2.552 165.034 2.75733 165.496 3.168C165.966 3.57133 166.2 4.19833 166.2 5.049V8.492H164.902ZM163.054 8.569C162.614 8.569 162.229 8.49566 161.899 8.349C161.569 8.195 161.313 7.986 161.129 7.722C160.953 7.45066 160.865 7.14633 160.865 6.809C160.865 6.479 160.942 6.182 161.096 5.918C161.258 5.654 161.518 5.445 161.877 5.291C162.237 5.137 162.713 5.06 163.307 5.06H165.012V5.973H163.406C162.937 5.973 162.622 6.05 162.46 6.204C162.299 6.35066 162.218 6.534 162.218 6.754C162.218 7.00333 162.317 7.20133 162.515 7.348C162.713 7.49466 162.988 7.568 163.34 7.568C163.678 7.568 163.978 7.491 164.242 7.337C164.514 7.183 164.708 6.95566 164.825 6.655L165.056 7.48C164.924 7.82466 164.686 8.09233 164.341 8.283C164.004 8.47366 163.575 8.569 163.054 8.569ZM167.965 8.492V0.329996H169.34V8.492H167.965ZM170.342 8.492L173.587 4.026V5.104L170.496 0.791996H172.113L174.412 3.982L173.752 3.993L176.029 0.791996H177.58L174.511 5.027V3.993L177.778 8.492H176.128L173.708 5.104H174.357L171.97 8.492H170.342ZM178.451 3.663L179.089 1.221L179.276 2.046C179.02 2.046 178.803 1.96533 178.627 1.804C178.459 1.64266 178.374 1.42633 178.374 1.155C178.374 0.883663 178.459 0.66733 178.627 0.505997C178.803 0.33733 179.016 0.252997 179.265 0.252997C179.522 0.252997 179.735 0.33733 179.903 0.505997C180.072 0.674663 180.156 0.890996 180.156 1.155C180.156 1.23566 180.149 1.32 180.134 1.408C180.127 1.48866 180.105 1.584 180.068 1.694C180.039 1.79666 179.988 1.93233 179.914 2.101L179.342 3.663H178.451ZM183.132 8.569C182.641 8.569 182.168 8.50666 181.713 8.382C181.266 8.25 180.91 8.09233 180.646 7.909L181.174 6.864C181.438 7.03266 181.754 7.172 182.12 7.282C182.487 7.392 182.854 7.447 183.22 7.447C183.653 7.447 183.965 7.38833 184.155 7.271C184.353 7.15366 184.452 6.996 184.452 6.798C184.452 6.63666 184.386 6.51566 184.254 6.435C184.122 6.347 183.95 6.281 183.737 6.237C183.525 6.193 183.286 6.15266 183.022 6.116C182.766 6.07933 182.505 6.03166 182.241 5.973C181.985 5.907 181.75 5.81533 181.537 5.698C181.325 5.57333 181.152 5.40833 181.02 5.203C180.888 4.99766 180.822 4.72633 180.822 4.389C180.822 4.015 180.929 3.69233 181.141 3.421C181.354 3.14233 181.651 2.92966 182.032 2.783C182.421 2.629 182.879 2.552 183.407 2.552C183.803 2.552 184.203 2.596 184.606 2.684C185.01 2.772 185.343 2.89666 185.607 3.058L185.079 4.103C184.801 3.93433 184.518 3.82066 184.232 3.762C183.954 3.696 183.675 3.663 183.396 3.663C182.978 3.663 182.667 3.72533 182.461 3.85C182.263 3.97466 182.164 4.13233 182.164 4.323C182.164 4.499 182.23 4.631 182.362 4.719C182.494 4.807 182.667 4.87666 182.879 4.928C183.092 4.97933 183.327 5.02333 183.583 5.06C183.847 5.08933 184.108 5.137 184.364 5.203C184.621 5.269 184.856 5.36066 185.068 5.478C185.288 5.588 185.464 5.74566 185.596 5.951C185.728 6.15633 185.794 6.424 185.794 6.754C185.794 7.12066 185.684 7.43966 185.464 7.711C185.252 7.98233 184.947 8.195 184.551 8.349C184.155 8.49566 183.682 8.569 183.132 8.569ZM315.615 8.613L311.215 4.389C310.966 4.147 310.764 3.92333 310.61 3.718C310.456 3.51266 310.346 3.31466 310.28 3.124C310.214 2.926 310.181 2.72433 310.181 2.519C310.181 2.15966 310.273 1.84433 310.456 1.573C310.639 1.29433 310.9 1.08166 311.237 0.934996C311.574 0.780997 311.967 0.703997 312.414 0.703997C312.832 0.703997 313.191 0.773663 313.492 0.912997C313.8 1.045 314.038 1.23933 314.207 1.496C314.383 1.74533 314.471 2.046 314.471 2.398C314.471 2.706 314.394 2.992 314.24 3.256C314.086 3.51266 313.844 3.75833 313.514 3.993C313.191 4.22766 312.759 4.47333 312.216 4.73C311.813 4.928 311.494 5.115 311.259 5.291C311.024 5.467 310.856 5.643 310.753 5.819C310.65 5.995 310.599 6.18933 310.599 6.402C310.599 6.61466 310.661 6.80166 310.786 6.963C310.918 7.12433 311.101 7.25266 311.336 7.348C311.571 7.436 311.846 7.48 312.161 7.48C312.63 7.48 313.056 7.37733 313.437 7.172C313.826 6.95933 314.152 6.644 314.416 6.226C314.68 5.808 314.871 5.291 314.988 4.675L316.099 5.038C315.945 5.77866 315.677 6.41666 315.296 6.952C314.922 7.48 314.46 7.887 313.91 8.173C313.36 8.459 312.744 8.602 312.062 8.602C311.527 8.602 311.046 8.514 310.621 8.338C310.196 8.162 309.862 7.92 309.62 7.612C309.378 7.304 309.257 6.94833 309.257 6.545C309.257 6.17833 309.338 5.84833 309.499 5.555C309.66 5.26166 309.917 4.983 310.269 4.719C310.621 4.44766 311.072 4.17633 311.622 3.905C312.055 3.69233 312.392 3.50533 312.634 3.344C312.883 3.18266 313.056 3.02866 313.151 2.882C313.254 2.73533 313.305 2.58133 313.305 2.42C313.305 2.2 313.228 2.024 313.074 1.892C312.92 1.75266 312.7 1.683 312.414 1.683C312.106 1.683 311.864 1.76 311.688 1.914C311.519 2.06066 311.435 2.255 311.435 2.497C311.435 2.62166 311.457 2.74266 311.501 2.86C311.552 2.97733 311.64 3.10933 311.765 3.256C311.89 3.40266 312.069 3.58966 312.304 3.817L316.374 7.722L315.615 8.613Z" fill="black"/>
<path d="M191.713 8.492V2.002H189.161V0.791996H195.695V2.002H193.143V8.492H191.713ZM198.795 8.569C198.143 8.569 197.571 8.44066 197.079 8.184C196.595 7.92 196.218 7.56066 195.946 7.106C195.682 6.65133 195.55 6.13433 195.55 5.555C195.55 4.96833 195.679 4.45133 195.935 4.004C196.199 3.54933 196.559 3.19366 197.013 2.937C197.475 2.68033 198 2.552 198.586 2.552C199.158 2.552 199.668 2.67666 200.115 2.926C200.563 3.17533 200.915 3.52733 201.171 3.982C201.428 4.43666 201.556 4.972 201.556 5.588C201.556 5.64666 201.553 5.71266 201.545 5.786C201.545 5.85933 201.542 5.929 201.534 5.995H196.639V5.082H200.808L200.269 5.368C200.277 5.03066 200.207 4.73366 200.06 4.477C199.914 4.22033 199.712 4.01866 199.455 3.872C199.206 3.72533 198.916 3.652 198.586 3.652C198.249 3.652 197.952 3.72533 197.695 3.872C197.446 4.01866 197.248 4.224 197.101 4.488C196.962 4.74466 196.892 5.049 196.892 5.401V5.621C196.892 5.973 196.973 6.28466 197.134 6.556C197.296 6.82733 197.523 7.03633 197.816 7.183C198.11 7.32966 198.447 7.403 198.828 7.403C199.158 7.403 199.455 7.35166 199.719 7.249C199.983 7.14633 200.218 6.985 200.423 6.765L201.16 7.612C200.896 7.92 200.563 8.15833 200.159 8.327C199.763 8.48833 199.309 8.569 198.795 8.569ZM202.877 8.492V2.618H204.186V4.235L204.032 3.762C204.208 3.366 204.483 3.06533 204.857 2.86C205.238 2.65466 205.711 2.552 206.276 2.552V3.861C206.217 3.84633 206.162 3.839 206.111 3.839C206.06 3.83166 206.008 3.828 205.957 3.828C205.436 3.828 205.022 3.982 204.714 4.29C204.406 4.59066 204.252 5.04166 204.252 5.643V8.492H202.877ZM207.442 8.492V2.618H208.751V4.18L208.52 3.718C208.718 3.33666 209.004 3.047 209.378 2.849C209.76 2.651 210.192 2.552 210.676 2.552C211.226 2.552 211.703 2.68766 212.106 2.959C212.517 3.23033 212.788 3.641 212.92 4.191L212.381 4.004C212.572 3.564 212.887 3.212 213.327 2.948C213.767 2.684 214.277 2.552 214.856 2.552C215.326 2.552 215.74 2.64366 216.099 2.827C216.466 3.01033 216.752 3.29266 216.957 3.674C217.163 4.048 217.265 4.532 217.265 5.126V8.492H215.89V5.302C215.89 4.78133 215.777 4.39266 215.549 4.136C215.322 3.87933 214.996 3.751 214.57 3.751C214.27 3.751 214.002 3.817 213.767 3.949C213.54 4.081 213.36 4.27533 213.228 4.532C213.104 4.78866 213.041 5.115 213.041 5.511V8.492H211.666V5.302C211.666 4.78133 211.553 4.39266 211.325 4.136C211.098 3.87933 210.772 3.751 210.346 3.751C210.046 3.751 209.778 3.817 209.543 3.949C209.316 4.081 209.136 4.27533 209.004 4.532C208.88 4.78866 208.817 5.115 208.817 5.511V8.492H207.442ZM220.837 8.569C220.346 8.569 219.873 8.50666 219.418 8.382C218.971 8.25 218.615 8.09233 218.351 7.909L218.879 6.864C219.143 7.03266 219.459 7.172 219.825 7.282C220.192 7.392 220.559 7.447 220.925 7.447C221.358 7.447 221.67 7.38833 221.86 7.271C222.058 7.15366 222.157 6.996 222.157 6.798C222.157 6.63666 222.091 6.51566 221.959 6.435C221.827 6.347 221.655 6.281 221.442 6.237C221.23 6.193 220.991 6.15266 220.727 6.116C220.471 6.07933 220.21 6.03166 219.946 5.973C219.69 5.907 219.455 5.81533 219.242 5.698C219.03 5.57333 218.857 5.40833 218.725 5.203C218.593 4.99766 218.527 4.72633 218.527 4.389C218.527 4.015 218.634 3.69233 218.846 3.421C219.059 3.14233 219.356 2.92966 219.737 2.783C220.126 2.629 220.584 2.552 221.112 2.552C221.508 2.552 221.908 2.596 222.311 2.684C222.715 2.772 223.048 2.89666 223.312 3.058L222.784 4.103C222.506 3.93433 222.223 3.82066 221.937 3.762C221.659 3.696 221.38 3.663 221.101 3.663C220.683 3.663 220.372 3.72533 220.166 3.85C219.968 3.97466 219.869 4.13233 219.869 4.323C219.869 4.499 219.935 4.631 220.067 4.719C220.199 4.807 220.372 4.87666 220.584 4.928C220.797 4.97933 221.032 5.02333 221.288 5.06C221.552 5.08933 221.813 5.137 222.069 5.203C222.326 5.269 222.561 5.36066 222.773 5.478C222.993 5.588 223.169 5.74566 223.301 5.951C223.433 6.15633 223.499 6.424 223.499 6.754C223.499 7.12066 223.389 7.43966 223.169 7.711C222.957 7.98233 222.652 8.195 222.256 8.349C221.86 8.49566 221.387 8.569 220.837 8.569ZM231.343 8.492V7.304L231.266 7.051V4.972C231.266 4.56866 231.145 4.257 230.903 4.037C230.661 3.80966 230.294 3.696 229.803 3.696C229.473 3.696 229.146 3.74733 228.824 3.85C228.508 3.95266 228.241 4.09566 228.021 4.279L227.482 3.278C227.797 3.036 228.171 2.85633 228.604 2.739C229.044 2.61433 229.498 2.552 229.968 2.552C230.818 2.552 231.475 2.75733 231.937 3.168C232.406 3.57133 232.641 4.19833 232.641 5.049V8.492H231.343ZM229.495 8.569C229.055 8.569 228.67 8.49566 228.34 8.349C228.01 8.195 227.753 7.986 227.57 7.722C227.394 7.45066 227.306 7.14633 227.306 6.809C227.306 6.479 227.383 6.182 227.537 5.918C227.698 5.654 227.958 5.445 228.318 5.291C228.677 5.137 229.154 5.06 229.748 5.06H231.453V5.973H229.847C229.377 5.973 229.062 6.05 228.901 6.204C228.739 6.35066 228.659 6.534 228.659 6.754C228.659 7.00333 228.758 7.20133 228.956 7.348C229.154 7.49466 229.429 7.568 229.781 7.568C230.118 7.568 230.419 7.491 230.683 7.337C230.954 7.183 231.148 6.95566 231.266 6.655L231.497 7.48C231.365 7.82466 231.126 8.09233 230.782 8.283C230.444 8.47366 230.015 8.569 229.495 8.569ZM234.405 8.492V2.618H235.714V4.202L235.483 3.718C235.689 3.344 235.986 3.058 236.374 2.86C236.77 2.65466 237.225 2.552 237.738 2.552C238.208 2.552 238.626 2.64366 238.992 2.827C239.366 3.01033 239.66 3.29266 239.872 3.674C240.085 4.048 240.191 4.532 240.191 5.126V8.492H238.816V5.302C238.816 4.78133 238.692 4.39266 238.442 4.136C238.2 3.87933 237.859 3.751 237.419 3.751C237.097 3.751 236.811 3.817 236.561 3.949C236.312 4.081 236.118 4.279 235.978 4.543C235.846 4.79966 235.78 5.126 235.78 5.522V8.492H234.405ZM244.432 8.569C243.868 8.569 243.358 8.44433 242.903 8.195C242.456 7.93833 242.104 7.58633 241.847 7.139C241.591 6.69166 241.462 6.16366 241.462 5.555C241.462 4.94633 241.591 4.41833 241.847 3.971C242.104 3.52366 242.456 3.17533 242.903 2.926C243.358 2.67666 243.868 2.552 244.432 2.552C244.924 2.552 245.364 2.662 245.752 2.882C246.141 3.09466 246.449 3.421 246.676 3.861C246.904 4.301 247.017 4.86566 247.017 5.555C247.017 6.237 246.907 6.80166 246.687 7.249C246.467 7.689 246.163 8.019 245.774 8.239C245.386 8.459 244.938 8.569 244.432 8.569ZM244.597 7.392C244.927 7.392 245.221 7.31866 245.477 7.172C245.741 7.02533 245.95 6.81266 246.104 6.534C246.266 6.25533 246.346 5.929 246.346 5.555C246.346 5.17366 246.266 4.84733 246.104 4.576C245.95 4.29733 245.741 4.08466 245.477 3.938C245.221 3.79133 244.927 3.718 244.597 3.718C244.267 3.718 243.97 3.79133 243.706 3.938C243.45 4.08466 243.241 4.29733 243.079 4.576C242.925 4.84733 242.848 5.17366 242.848 5.555C242.848 5.929 242.925 6.25533 243.079 6.534C243.241 6.81266 243.45 7.02533 243.706 7.172C243.97 7.31866 244.267 7.392 244.597 7.392ZM246.379 8.492V7.106L246.434 5.544L246.324 3.982V0.329996H247.688V8.492H246.379ZM255.233 8.569C254.617 8.569 254.067 8.44066 253.583 8.184C253.106 7.92 252.732 7.56066 252.461 7.106C252.19 6.65133 252.054 6.13433 252.054 5.555C252.054 4.96833 252.19 4.45133 252.461 4.004C252.732 3.54933 253.106 3.19366 253.583 2.937C254.067 2.68033 254.617 2.552 255.233 2.552C255.805 2.552 256.307 2.66933 256.74 2.904C257.18 3.13133 257.514 3.46866 257.741 3.916L256.685 4.532C256.509 4.25333 256.293 4.048 256.036 3.916C255.787 3.784 255.515 3.718 255.222 3.718C254.885 3.718 254.58 3.79133 254.309 3.938C254.038 4.08466 253.825 4.29733 253.671 4.576C253.517 4.84733 253.44 5.17366 253.44 5.555C253.44 5.93633 253.517 6.26633 253.671 6.545C253.825 6.81633 254.038 7.02533 254.309 7.172C254.58 7.31866 254.885 7.392 255.222 7.392C255.515 7.392 255.787 7.326 256.036 7.194C256.293 7.062 256.509 6.85666 256.685 6.578L257.741 7.194C257.514 7.634 257.18 7.975 256.74 8.217C256.307 8.45166 255.805 8.569 255.233 8.569ZM261.484 8.569C260.882 8.569 260.347 8.44066 259.878 8.184C259.408 7.92 259.038 7.56066 258.767 7.106C258.495 6.65133 258.36 6.13433 258.36 5.555C258.36 4.96833 258.495 4.45133 258.767 4.004C259.038 3.54933 259.408 3.19366 259.878 2.937C260.347 2.68033 260.882 2.552 261.484 2.552C262.092 2.552 262.631 2.68033 263.101 2.937C263.577 3.19366 263.948 3.54566 264.212 3.993C264.483 4.44033 264.619 4.961 264.619 5.555C264.619 6.13433 264.483 6.65133 264.212 7.106C263.948 7.56066 263.577 7.92 263.101 8.184C262.631 8.44066 262.092 8.569 261.484 8.569ZM261.484 7.392C261.821 7.392 262.122 7.31866 262.386 7.172C262.65 7.02533 262.855 6.81266 263.002 6.534C263.156 6.25533 263.233 5.929 263.233 5.555C263.233 5.17366 263.156 4.84733 263.002 4.576C262.855 4.29733 262.65 4.08466 262.386 3.938C262.122 3.79133 261.825 3.718 261.495 3.718C261.157 3.718 260.857 3.79133 260.593 3.938C260.336 4.08466 260.131 4.29733 259.977 4.576C259.823 4.84733 259.746 5.17366 259.746 5.555C259.746 5.929 259.823 6.25533 259.977 6.534C260.131 6.81266 260.336 7.02533 260.593 7.172C260.857 7.31866 261.154 7.392 261.484 7.392ZM265.934 8.492V2.618H267.243V4.202L267.012 3.718C267.217 3.344 267.514 3.058 267.903 2.86C268.299 2.65466 268.753 2.552 269.267 2.552C269.736 2.552 270.154 2.64366 270.521 2.827C270.895 3.01033 271.188 3.29266 271.401 3.674C271.613 4.048 271.72 4.532 271.72 5.126V8.492H270.345V5.302C270.345 4.78133 270.22 4.39266 269.971 4.136C269.729 3.87933 269.388 3.751 268.948 3.751C268.625 3.751 268.339 3.817 268.09 3.949C267.84 4.081 267.646 4.279 267.507 4.543C267.375 4.79966 267.309 5.126 267.309 5.522V8.492H265.934ZM275.961 8.569C275.396 8.569 274.886 8.44433 274.432 8.195C273.984 7.93833 273.632 7.58633 273.376 7.139C273.119 6.69166 272.991 6.16366 272.991 5.555C272.991 4.94633 273.119 4.41833 273.376 3.971C273.632 3.52366 273.984 3.17533 274.432 2.926C274.886 2.67666 275.396 2.552 275.961 2.552C276.452 2.552 276.892 2.662 277.281 2.882C277.669 3.09466 277.977 3.421 278.205 3.861C278.432 4.301 278.546 4.86566 278.546 5.555C278.546 6.237 278.436 6.80166 278.216 7.249C277.996 7.689 277.691 8.019 277.303 8.239C276.914 8.459 276.467 8.569 275.961 8.569ZM276.126 7.392C276.456 7.392 276.749 7.31866 277.006 7.172C277.27 7.02533 277.479 6.81266 277.633 6.534C277.794 6.25533 277.875 5.929 277.875 5.555C277.875 5.17366 277.794 4.84733 277.633 4.576C277.479 4.29733 277.27 4.08466 277.006 3.938C276.749 3.79133 276.456 3.718 276.126 3.718C275.796 3.718 275.499 3.79133 275.235 3.938C274.978 4.08466 274.769 4.29733 274.608 4.576C274.454 4.84733 274.377 5.17366 274.377 5.555C274.377 5.929 274.454 6.25533 274.608 6.534C274.769 6.81266 274.978 7.02533 275.235 7.172C275.499 7.31866 275.796 7.392 276.126 7.392ZM277.908 8.492V7.106L277.963 5.544L277.853 3.982V0.329996H279.217V8.492H277.908ZM281.026 8.492V2.618H282.401V8.492H281.026ZM281.719 1.65C281.463 1.65 281.25 1.56933 281.081 1.408C280.92 1.24666 280.839 1.05233 280.839 0.824996C280.839 0.59033 280.92 0.395996 281.081 0.241996C281.25 0.0806631 281.463 -3.39746e-06 281.719 -3.39746e-06C281.976 -3.39746e-06 282.185 0.0769965 282.346 0.230996C282.515 0.377663 282.599 0.564663 282.599 0.791996C282.599 1.034 282.519 1.23933 282.357 1.408C282.196 1.56933 281.983 1.65 281.719 1.65ZM286.417 8.569C285.772 8.569 285.273 8.404 284.921 8.074C284.569 7.73666 284.393 7.24166 284.393 6.589V1.32H285.768V6.556C285.768 6.83466 285.838 7.051 285.977 7.205C286.124 7.359 286.325 7.436 286.582 7.436C286.89 7.436 287.147 7.35533 287.352 7.194L287.737 8.173C287.576 8.305 287.378 8.404 287.143 8.47C286.908 8.536 286.666 8.569 286.417 8.569ZM283.425 3.718V2.618H287.341V3.718H283.425ZM288.868 8.492V2.618H290.243V8.492H288.868ZM289.561 1.65C289.305 1.65 289.092 1.56933 288.923 1.408C288.762 1.24666 288.681 1.05233 288.681 0.824996C288.681 0.59033 288.762 0.395996 288.923 0.241996C289.092 0.0806631 289.305 -3.39746e-06 289.561 -3.39746e-06C289.818 -3.39746e-06 290.027 0.0769965 290.188 0.230996C290.357 0.377663 290.441 0.564663 290.441 0.791996C290.441 1.034 290.361 1.23933 290.199 1.408C290.038 1.56933 289.825 1.65 289.561 1.65ZM294.688 8.569C294.087 8.569 293.551 8.44066 293.082 8.184C292.613 7.92 292.242 7.56066 291.971 7.106C291.7 6.65133 291.564 6.13433 291.564 5.555C291.564 4.96833 291.7 4.45133 291.971 4.004C292.242 3.54933 292.613 3.19366 293.082 2.937C293.551 2.68033 294.087 2.552 294.688 2.552C295.297 2.552 295.836 2.68033 296.305 2.937C296.782 3.19366 297.152 3.54566 297.416 3.993C297.687 4.44033 297.823 4.961 297.823 5.555C297.823 6.13433 297.687 6.65133 297.416 7.106C297.152 7.56066 296.782 7.92 296.305 8.184C295.836 8.44066 295.297 8.569 294.688 8.569ZM294.688 7.392C295.025 7.392 295.326 7.31866 295.59 7.172C295.854 7.02533 296.059 6.81266 296.206 6.534C296.36 6.25533 296.437 5.929 296.437 5.555C296.437 5.17366 296.36 4.84733 296.206 4.576C296.059 4.29733 295.854 4.08466 295.59 3.938C295.326 3.79133 295.029 3.718 294.699 3.718C294.362 3.718 294.061 3.79133 293.797 3.938C293.54 4.08466 293.335 4.29733 293.181 4.576C293.027 4.84733 292.95 5.17366 292.95 5.555C292.95 5.929 293.027 6.25533 293.181 6.534C293.335 6.81266 293.54 7.02533 293.797 7.172C294.061 7.31866 294.358 7.392 294.688 7.392ZM299.138 8.492V2.618H300.447V4.202L300.216 3.718C300.421 3.344 300.718 3.058 301.107 2.86C301.503 2.65466 301.957 2.552 302.471 2.552C302.94 2.552 303.358 2.64366 303.725 2.827C304.099 3.01033 304.392 3.29266 304.605 3.674C304.817 4.048 304.924 4.532 304.924 5.126V8.492H303.549V5.302C303.549 4.78133 303.424 4.39266 303.175 4.136C302.933 3.87933 302.592 3.751 302.152 3.751C301.829 3.751 301.543 3.817 301.294 3.949C301.044 4.081 300.85 4.279 300.711 4.543C300.579 4.79966 300.513 5.126 300.513 5.522V8.492H299.138ZM3.25602 21.569C2.77936 21.569 2.34302 21.459 1.94702 21.239C1.55836 21.019 1.24669 20.689 1.01202 20.249C0.784689 19.8017 0.671023 19.237 0.671023 18.555C0.671023 17.8657 0.781023 17.301 1.00102 16.861C1.22836 16.421 1.53636 16.0947 1.92502 15.882C2.31369 15.662 2.75736 15.552 3.25602 15.552C3.83536 15.552 4.34502 15.6767 4.78502 15.926C5.23236 16.1753 5.58436 16.5237 5.84102 16.971C6.10502 17.4183 6.23702 17.9463 6.23702 18.555C6.23702 19.1637 6.10502 19.6953 5.84102 20.15C5.58436 20.5973 5.23236 20.9457 4.78502 21.195C4.34502 21.4443 3.83536 21.569 3.25602 21.569ZM2.24859e-05 23.626V15.618H1.30902V17.004L1.26502 18.566L1.37502 20.128V23.626H2.24859e-05ZM3.10202 20.392C3.43202 20.392 3.72536 20.3187 3.98202 20.172C4.24602 20.0253 4.45502 19.8127 4.60902 19.534C4.76302 19.2553 4.84002 18.929 4.84002 18.555C4.84002 18.1737 4.76302 17.8473 4.60902 17.576C4.45502 17.2973 4.24602 17.0847 3.98202 16.938C3.72536 16.7913 3.43202 16.718 3.10202 16.718C2.77202 16.718 2.47502 16.7913 2.21102 16.938C1.94702 17.0847 1.73802 17.2973 1.58402 17.576C1.43002 17.8473 1.35302 18.1737 1.35302 18.555C1.35302 18.929 1.43002 19.2553 1.58402 19.534C1.73802 19.8127 1.94702 20.0253 2.21102 20.172C2.47502 20.3187 2.77202 20.392 3.10202 20.392ZM7.54104 21.492V15.618H8.85004V17.235L8.69604 16.762C8.87204 16.366 9.14704 16.0653 9.52104 15.86C9.90237 15.6547 10.3754 15.552 10.94 15.552V16.861C10.8814 16.8463 10.8264 16.839 10.775 16.839C10.7237 16.8317 10.6724 16.828 10.621 16.828C10.1004 16.828 9.68604 16.982 9.37804 17.29C9.07004 17.5907 8.91604 18.0417 8.91604 18.643V21.492H7.54104ZM12.1065 21.492V15.618H13.4815V21.492H12.1065ZM12.7995 14.65C12.5428 14.65 12.3301 14.5693 12.1615 14.408C12.0001 14.2467 11.9195 14.0523 11.9195 13.825C11.9195 13.5903 12.0001 13.396 12.1615 13.242C12.3301 13.0807 12.5428 13 12.7995 13C13.0561 13 13.2651 13.077 13.4265 13.231C13.5951 13.3777 13.6795 13.5647 13.6795 13.792C13.6795 14.034 13.5988 14.2393 13.4375 14.408C13.2761 14.5693 13.0635 14.65 12.7995 14.65ZM16.8482 21.492L14.3292 15.618H15.7592L17.9262 20.799H17.2222L19.4662 15.618H20.7862L18.2672 21.492H16.8482ZM25.0175 21.492V20.304L24.9405 20.051V17.972C24.9405 17.5687 24.8195 17.257 24.5775 17.037C24.3355 16.8097 23.9688 16.696 23.4775 16.696C23.1475 16.696 22.8211 16.7473 22.4985 16.85C22.1831 16.9527 21.9155 17.0957 21.6955 17.279L21.1565 16.278C21.4718 16.036 21.8458 15.8563 22.2785 15.739C22.7185 15.6143 23.1731 15.552 23.6425 15.552C24.4931 15.552 25.1495 15.7573 25.6115 16.168C26.0808 16.5713 26.3155 17.1983 26.3155 18.049V21.492H25.0175ZM23.1695 21.569C22.7295 21.569 22.3445 21.4957 22.0145 21.349C21.6845 21.195 21.4278 20.986 21.2445 20.722C21.0685 20.4507 20.9805 20.1463 20.9805 19.809C20.9805 19.479 21.0575 19.182 21.2115 18.918C21.3728 18.654 21.6331 18.445 21.9925 18.291C22.3518 18.137 22.8285 18.06 23.4225 18.06H25.1275V18.973H23.5215C23.0521 18.973 22.7368 19.05 22.5755 19.204C22.4141 19.3507 22.3335 19.534 22.3335 19.754C22.3335 20.0033 22.4325 20.2013 22.6305 20.348C22.8285 20.4947 23.1035 20.568 23.4555 20.568C23.7928 20.568 24.0935 20.491 24.3575 20.337C24.6288 20.183 24.8231 19.9557 24.9405 19.655L25.1715 20.48C25.0395 20.8247 24.8011 21.0923 24.4565 21.283C24.1191 21.4737 23.6901 21.569 23.1695 21.569ZM30.7858 21.569C30.1698 21.569 29.6198 21.4407 29.1358 21.184C28.6592 20.92 28.2852 20.5607 28.0138 20.106C27.7425 19.6513 27.6068 19.1343 27.6068 18.555C27.6068 17.9683 27.7425 17.4513 28.0138 17.004C28.2852 16.5493 28.6592 16.1937 29.1358 15.937C29.6198 15.6803 30.1698 15.552 30.7858 15.552C31.3578 15.552 31.8602 15.6693 32.2928 15.904C32.7328 16.1313 33.0665 16.4687 33.2938 16.916L32.2378 17.532C32.0618 17.2533 31.8455 17.048 31.5888 16.916C31.3395 16.784 31.0682 16.718 30.7748 16.718C30.4375 16.718 30.1332 16.7913 29.8618 16.938C29.5905 17.0847 29.3778 17.2973 29.2238 17.576C29.0698 17.8473 28.9928 18.1737 28.9928 18.555C28.9928 18.9363 29.0698 19.2663 29.2238 19.545C29.3778 19.8163 29.5905 20.0253 29.8618 20.172C30.1332 20.3187 30.4375 20.392 30.7748 20.392C31.0682 20.392 31.3395 20.326 31.5888 20.194C31.8455 20.062 32.0618 19.8567 32.2378 19.578L33.2938 20.194C33.0665 20.634 32.7328 20.975 32.2928 21.217C31.8602 21.4517 31.3578 21.569 30.7858 21.569ZM34.9664 23.703C34.6804 23.703 34.3944 23.6553 34.1084 23.56C33.8224 23.4647 33.5841 23.3327 33.3934 23.164L33.9434 22.152C34.0828 22.2767 34.2404 22.3757 34.4164 22.449C34.5924 22.5223 34.7721 22.559 34.9554 22.559C35.2048 22.559 35.4064 22.4967 35.5604 22.372C35.7144 22.2473 35.8574 22.0383 35.9894 21.745L36.3304 20.975L36.4404 20.81L38.6624 15.618H39.9824L37.2324 21.965C37.0491 22.405 36.8438 22.7533 36.6164 23.01C36.3964 23.2667 36.1471 23.4463 35.8684 23.549C35.5971 23.6517 35.2964 23.703 34.9664 23.703ZM36.1764 21.701L33.5254 15.618H34.9554L37.1114 20.689L36.1764 21.701ZM47.1379 21.569C46.6612 21.569 46.2249 21.459 45.8289 21.239C45.4402 21.019 45.1285 20.689 44.8939 20.249C44.6665 19.8017 44.5529 19.237 44.5529 18.555C44.5529 17.8657 44.6629 17.301 44.8829 16.861C45.1102 16.421 45.4182 16.0947 45.8069 15.882C46.1955 15.662 46.6392 15.552 47.1379 15.552C47.7172 15.552 48.2269 15.6767 48.6669 15.926C49.1142 16.1753 49.4662 16.5237 49.7229 16.971C49.9869 17.4183 50.1189 17.9463 50.1189 18.555C50.1189 19.1637 49.9869 19.6953 49.7229 20.15C49.4662 20.5973 49.1142 20.9457 48.6669 21.195C48.2269 21.4443 47.7172 21.569 47.1379 21.569ZM43.8819 23.626V15.618H45.1909V17.004L45.1469 18.566L45.2569 20.128V23.626H43.8819ZM46.9839 20.392C47.3139 20.392 47.6072 20.3187 47.8639 20.172C48.1279 20.0253 48.3369 19.8127 48.4909 19.534C48.6449 19.2553 48.7219 18.929 48.7219 18.555C48.7219 18.1737 48.6449 17.8473 48.4909 17.576C48.3369 17.2973 48.1279 17.0847 47.8639 16.938C47.6072 16.7913 47.3139 16.718 46.9839 16.718C46.6539 16.718 46.3569 16.7913 46.0929 16.938C45.8289 17.0847 45.6199 17.2973 45.4659 17.576C45.3119 17.8473 45.2349 18.1737 45.2349 18.555C45.2349 18.929 45.3119 19.2553 45.4659 19.534C45.6199 19.8127 45.8289 20.172C46.0929 20.172C46.3569 20.3187 46.6539 20.392 46.9839 20.392ZM54.0629 21.569C53.4615 21.569 52.9262 21.4407 52.4569 21.184C51.9875 20.92 51.6172 20.5607 51.3459 20.106C51.0745 19.6513 50.9389 19.1343 50.9389 18.555C50.9389 17.9683 51.0745 17.4513 51.3459 17.004C51.6172 16.5493 51.9875 16.1937 52.4569 15.937C52.9262 15.6803 53.4615 15.552 54.0629 15.552C54.6715 15.552 55.2105 15.6803 55.6799 15.937C56.1565 16.1937 56.5269 16.5457 56.7909 16.993C57.0622 17.4403 57.1979 17.961 57.1979 18.555C57.1979 19.1343 57.0622 19.6513 56.7909 20.106C56.5269 20.5607 56.1565 20.92 55.6799 21.184C55.2105 21.4443 54.6715 21.569 54.0629 21.569ZM54.0629 20.392C54.4002 20.392 54.7009 20.3187 54.9649 20.172C55.2289 20.0253 55.4342 19.8127 55.5809 19.534C55.7349 19.2553 55.8119 18.929 55.8119 18.555C55.8119 18.1737 55.7349 17.8473 55.5809 17.576C55.4342 17.2973 55.2289 17.0847 54.9649 16.938C54.7009 16.7913 54.4039 16.718 54.0739 16.718C53.7365 16.718 53.4359 16.7913 53.1719 16.938C52.9152 17.0847 52.7099 17.2973 52.5559 17.576C52.4019 17.8473 52.3249 18.1737 52.3249 18.555C52.3249 18.929 52.4019 19.2553 52.5559 19.534C52.7099 19.8127 52.9152 20.0253 53.1719 20.172C53.4359 20.3187 53.7329 20.392 54.0629 20.392ZM58.5127 21.492V13.33H59.8877V21.492H58.5127ZM61.6924 21.492V15.618H63.0674V21.492H61.6924ZM62.3854 14.65C62.1287 14.65 61.9161 14.5693 61.7474 14.408C61.5861 14.2467 61.5054 14.0523 61.5054 13.825C61.5054 13.5903 61.5861 13.396 61.7474 13.242C61.9161 13.0807 62.1287 13 62.3854 13C62.6421 13 62.8511 13.077 63.0124 13.231C63.1811 13.3777 63.2654 13.5647 63.2654 13.792C63.2654 14.034 63.1847 14.2393 63.0234 14.408C62.8621 14.5693 62.6494 14.65 62.3854 14.65ZM67.5671 21.569C66.9511 21.569 66.4011 21.4407 65.9171 21.184C65.4404 20.92 65.0664 20.5607 64.7951 20.106C64.5238 19.6513 64.3881 19.1343 64.3881 18.555C64.3881 17.9683 64.5238 17.4513 64.7951 17.004C65.0664 16.5493 65.4404 16.1937 65.9171 15.937C66.4011 15.6803 66.9511 15.552 67.5671 15.552C68.1391 15.552 68.6414 15.6693 69.0741 15.904C69.5141 16.1313 69.8478 16.4687 70.0751 16.916L69.0191 17.532C68.8431 17.2533 68.6268 17.048 68.3701 16.916C68.1208 16.784 67.8494 16.718 67.5561 16.718C67.2188 16.718 66.9144 16.7913 66.6431 16.938C66.3718 17.0847 66.1591 17.2973 66.0051 17.576C65.8511 17.8473 65.7741 18.1737 65.7741 18.555C65.7741 18.9363 65.8511 19.2663 66.0051 19.545C66.1591 19.8163 66.3718 20.0253 66.6431 20.172C66.9144 20.3187 67.2188 20.392 67.5561 20.392C67.8494 20.392 68.1208 20.326 68.3701 20.194C68.6268 20.062 68.8431 19.8567 69.0191 19.578L70.0751 20.194C69.8478 20.634 69.5141 20.975 69.0741 21.217C68.6414 21.4517 68.1391 21.569 67.5671 21.569ZM71.7477 23.703C71.4617 23.703 71.1757 23.6553 70.8897 23.56C70.6037 23.4647 70.3654 23.3327 70.1747 23.164L70.7247 22.152C70.864 22.2767 71.0217 22.3757 71.1977 22.449C71.3737 22.5223 71.5534 22.559 71.7367 22.559C71.986 22.559 72.1877 22.4967 72.3417 22.372C72.4957 22.2473 72.6387 22.0383 72.7707 21.745L73.1117 20.975L73.2217 20.81L75.4437 15.618H76.7637L74.0137 21.965C73.8304 22.405 73.625 22.7533 73.3977 23.01C73.1777 23.2667 72.9284 23.4463 72.6497 23.549C72.3784 23.6517 72.0777 23.703 71.7477 23.703ZM72.9577 21.701L70.3067 15.618H71.7367L73.8927 20.689L72.9577 21.701Z" fill="#2873F0"/>
</g>
</svg>
